<?xml version="1.0" encoding="UTF-8" standalone="no"?>
<!-- Created with Inkscape (http://www.inkscape.org/) -->

<svg
   width="1848.7111"
   height="351.65286"
   viewBox="0 0 1848.7111 351.65286"
   version="1.1"
   id="svg1"
   xmlns="http://www.w3.org/2000/svg"
   xmlns:svg="http://www.w3.org/2000/svg">
  <defs
     id="defs1" />
  <g
     id="layer1"
     transform="translate(-36.166709,-359.83328)">
    <rect
       style="fill:#ffffff;fill-opacity:1;stroke:#ffffff;stroke-width:1.37499;paint-order:markers fill stroke"
       id="rect42"
       width="1847.3359"
       height="350.27789"
       x="36.854206"
       y="360.52078" />
    <g
       id="g27"
       transform="translate(37.366707,15.418433)">
      <path
         fill="#ff9802"
         opacity="1"
         stroke="none"
         d="m 199.80371,522.81873 c 11.11267,-5.87104 22.22929,-10.52777 34.68127,-10.80988 21.34366,-0.48352 39.45578,8.00647 55.64695,20.92743 25.34335,20.22467 43.76971,45.57837 54.73187,76.21515 4.98422,13.92975 7.87598,28.04925 5.13681,42.95593 -3.35635,18.26569 -19.31119,31.56928 -37.85587,31.99463 -14.16555,0.32495 -26.56625,-4.98761 -38.91265,-10.71588 -13.19181,-6.12061 -27.09354,-10.34625 -41.43671,-8.04413 -12.45297,1.99872 -24.43834,6.88013 -36.65102,10.41626 -9.6501,2.79413 -19.21174,7.18549 -29.02284,7.87451 -23.59003,1.65668 -41.67884,-15.66821 -43.12853,-39.29431 -1.19926,-19.5445 5.15531,-37.05518 13.99079,-54.02057 13.29343,-25.52521 31.24876,-46.88507 55.28645,-62.92871 2.33882,-1.56104 4.79932,-2.93988 7.53348,-4.57043 m 55.68185,99.17608 c 6.51752,-6.43994 13.20951,-12.71496 19.50089,-19.36871 5.67249,-5.99921 8.79623,-13.1568 8.1861,-21.69403 -1.15464,-16.1565 -16.44104,-27.80579 -30.96273,-22.7948 -5.58304,1.92657 -10.43644,5.96753 -15.95532,9.24273 -0.17512,-0.24029 -0.80295,-1.16864 -1.49741,-2.04418 -5.49301,-6.92499 -15.46444,-10.07831 -23.69296,-7.65888 -21.97445,6.46112 -22.89634,32.17737 -11.8376,44.01996 11.10025,11.8869 22.98387,23.04187 34.50754,34.5343 2.53343,2.52661 4.69525,2.24658 7.18663,-0.27447 4.55948,-4.61383 9.3614,-8.98804 14.56486,-13.96192 z"
         id="path3" />
      <path
         fill="#ff9902"
         opacity="1"
         stroke="none"
         d="m 329.47925,479.46765 c -12.78214,13.05658 -27.37598,19.28607 -45.24063,13.3794 -13.83661,-4.57489 -22.38913,-14.85099 -28.10642,-27.80823 -13.55559,-30.72147 -2.21768,-71.97196 25.10996,-91.39124 17.58819,-12.49841 39.44494,-8.61288 52.55926,9.37787 19.91855,27.32514 18.91403,69.40817 -4.32217,96.4422 z"
         id="path4" />
      <path
         fill="#ff9902"
         opacity="1"
         stroke="none"
         d="m 221.7502,450.63748 c -3.07135,11.34155 -6.60982,21.95227 -14.56444,30.54315 -20.70009,22.35562 -48.62363,15.06824 -63.30328,-3.33358 -18.46993,-23.15326 -23.7852,-61.79133 -6.20559,-89.79001 5.49677,-8.75464 12.74213,-15.65082 22.5588,-19.54187 11.34074,-4.49518 21.83065,-2.47064 31.65632,4.12005 16.42275,11.01581 24.55448,27.33353 29.09322,45.92194 2.56486,10.50433 2.63736,21.05304 0.76497,32.08032 z"
         id="path5" />
      <path
         fill="#ff9902"
         opacity="1"
         stroke="none"
         d="m 333.37271,513.47174 c 4.95694,-20.14487 14.94559,-36.72089 31.58395,-48.53482 21.37018,-15.17364 46.57828,-8.06729 57.69336,15.65527 12.13086,25.89051 5.51249,63.6746 -15.48779,82.44046 -8.84833,7.9068 -18.73849,14.10846 -30.86044,14.719 -18.70081,0.94177 -33.0376,-9.56977 -40.21131,-28.09204 -4.53643,-11.71296 -4.71072,-23.62409 -2.71777,-36.18787 z"
         id="path6" />
      <path
         fill="#ff9902"
         opacity="1"
         stroke="none"
         d="m 49.186562,488.22583 c 3.698646,-11.93945 10.290924,-21.12015 21.158546,-26.89325 10.198608,-5.41772 20.683037,-6.02475 31.083332,-0.97247 28.08491,13.64306 46.30668,50.92175 39.43544,81.18359 -3.20334,14.10785 -10.34143,25.9527 -23.99845,32.36835 -15.53859,7.29962 -30.045758,3.20917 -43.037984,-6.18445 -15.897541,-11.4942 -23.425713,-28.22919 -26.833397,-47.12701 -1.95977,-10.86817 -0.912109,-21.47397 2.192513,-32.37476 z"
         id="path7" />
    </g>
    <g
       id="g26"
       transform="translate(37.366707,15.418433)">
      <path
         fill="#023562"
         opacity="1"
         stroke="none"
         d="m 990.70618,640.776 c -28.43586,9.32379 -54.97077,7.02789 -79.22357,-10.8006 -14.69422,-10.80182 -23.59485,-25.80401 -29.06208,-42.85852 -7.62957,-23.79974 -7.9685,-47.98846 -1.23486,-71.94732 6.6264,-23.57715 20.45178,-42.52723 41.77429,-54.72342 14.77625,-8.45188 31.19629,-11.10627 48.49896,-8.7468 14.599,1.99072 27.25983,7.61682 38.63448,16.60013 2.7229,2.15036 5.1169,4.71698 7.9126,7.32584 -6.6162,8.62478 -13.0365,16.9941 -19.55819,25.49557 -2.65075,-2.38605 -5.02838,-4.8995 -7.76428,-6.9303 -22.86438,-16.97159 -55.58648,-11.24234 -67.33191,17.92276 -10.34253,25.68134 -10.44568,51.89759 2.06201,76.99628 14.63141,29.3606 52.02021,30.8551 71.68921,7.08356 0.92908,-1.12287 1.91462,-2.19886 3.24346,-3.71967 6.7782,8.02564 13.2511,15.76233 19.816,23.42011 2.0361,2.375 0.5961,3.8388 -1.0014,5.43548 -8.174,8.17011 -17.4555,14.72608 -28.45472,19.4469 z"
         id="path25" />
      <path
         fill="#023563"
         opacity="1"
         stroke="none"
         d="m 1069.9453,508.8858 c 30.2412,-16.78259 62.2979,-12.02963 84.4696,12.25513 10.9739,12.01965 15.528,26.70416 17.233,42.41559 1.7684,16.29516 -0.7175,32.0393 -7.9322,46.82666 -12.8451,26.32751 -44.5916,40.78082 -73.1567,34.29932 -30.1374,-6.83838 -46.4071,-28.01191 -51.383,-56.37195 -3.9024,-22.24298 -0.9031,-43.72998 13.1619,-62.2428 4.8375,-6.36737 11.4852,-11.35938 17.6074,-17.18195 m 45.2125,24.10321 c -14.8534,-5.82397 -29.065,1.56946 -33.6424,14.91669 -5.5644,16.22492 -5.989,32.92108 -0.385,49.28375 3.6578,10.68048 15.8917,18.32581 25.2539,17.56256 12.7777,-1.0415 20.0884,-8.28082 23.9181,-19.78485 4.5136,-13.5589 4.3978,-27.24218 1.0456,-41.0805 -2.2297,-9.20453 -6.9725,-16.24604 -16.1902,-20.89765 z"
         id="path26" />
      <path
         fill="#023564"
         opacity="1"
         stroke="none"
         d="m 1603.0405,640.96686 c -23.5981,-9.38404 -35.1833,-28.05261 -39.661,-51.31751 -4.5882,-23.83923 -1.0735,-46.31488 14.4766,-66.24011 16.6007,-21.27203 48.6972,-30.40683 74.0912,-20.3024 27.0825,10.77634 39.901,31.77982 43.0955,59.79642 2.2004,19.297 -1.5039,37.49029 -11.8898,53.71631 -16.8921,26.39007 -50.7022,36.52044 -80.1125,24.34729 m 30.8242,-26.96808 c 9.4062,-2.44776 15.5496,-8.65167 18.9694,-17.4187 5.866,-15.0379 5.6531,-30.47571 1.0344,-45.68494 -2.8103,-9.25433 -8.9867,-16.38434 -18.7141,-18.86481 -14.3476,-3.65844 -26.2372,3.28058 -31.0653,18.21924 -4.5887,14.19849 -4.5886,28.69745 -0.2312,43.00879 4.9006,16.0957 12.5855,21.44025 30.0068,20.74042 z"
         id="path27" />
      <path
         fill="#023563"
         opacity="1"
         stroke="none"
         d="m 1282.2693,537.99219 c -0.3755,-0.43116 -0.751,-0.86225 -1.2734,-1.92414 -1.3985,-1.1228 -2.6501,-1.61486 -3.9017,-2.10693 -14.7523,-5.20605 -28.8524,2.89178 -35.979,14.70276 -1.0158,1.68353 -1.0797,4.11768 -1.0881,6.20636 -0.1094,27.15515 -0.129,54.31067 -0.1708,81.46606 0,1.64167 -3e-4,3.28339 -3e-4,5.31739 -12.8638,0 -25.4277,0 -38.3167,0 0,-45.98475 0,-92.04798 0,-138.39899 9.8847,0 19.6398,0 29.9742,0 1.6447,5.85126 3.3532,11.93024 5.2039,18.51489 3.4912,-3.09497 6.7194,-6.06909 10.0664,-8.90283 10.0562,-8.51428 21.7081,-13.47278 34.8535,-13.71881 23.1295,-0.43292 37.199,13.39007 41.2733,35.57092 1.0107,5.50159 1.0043,11.2309 1.061,16.85962 0.2391,23.80847 0.3256,47.61847 0.039,72.14758 -0.6134,2.01374 -0.9316,3.30512 -0.9589,4.60254 -0.1702,8.11017 -3.7664,11.76343 -11.9625,11.64789 -3.9546,-0.0558 -7.8996,-0.64874 -11.8528,-0.94733 -8.3528,-0.63098 -10.2512,-2.6726 -10.2564,-11.24078 -0.013,-20.47021 0.068,-40.94092 -0.054,-61.4104 -0.031,-5.28308 -0.1615,-10.66632 -1.2013,-15.81049 -0.8108,-4.01123 -3.1023,-7.72314 -4.7357,-11.56811 0,0 0.011,6.1e-4 -0.033,-0.21057 -0.1761,-0.49677 -0.3901,-0.6919 -0.6865,-0.79663 z"
         id="path41" />
      <path
         fill="#033665"
         opacity="1"
         stroke="none"
         d="m 1366.0535,586.99585 c 0,-18.14313 0,-35.78717 0,-53.83636 -6.5339,0 -12.7812,0 -19.3818,0 0,-10.14332 0,-19.88666 0,-30.02729 6.2935,0 12.5492,0 19.3076,0 0,-13.09701 0,-25.81976 0,-38.84482 12.7353,0 24.9641,0 37.7783,0 0,12.83466 0,25.56018 0,38.69519 11.1809,0 21.7877,0 32.7467,0 0,10.11899 0,19.81528 0,29.97062 -10.9432,0 -21.5309,0 -32.6564,0 0,3.55822 0,6.6781 0,9.79797 0,17.33032 0.2012,34.66357 -0.054,51.99017 -0.2854,19.42859 11.4861,23.0246 27.4692,19.18067 0.747,-0.17963 1.4467,-0.55658 2.409,-0.93671 3.2052,9.01251 6.3305,17.79999 9.5889,26.9624 -18.6416,7.68207 -37.5665,10.82282 -56.075,-0.151 -12.5571,-7.44519 -18.1778,-19.85577 -20.0836,-33.9057 -0.8231,-6.06775 -0.7257,-12.26025 -1.0478,-18.89514 z"
         id="path42" />
      <path
         fill="#023564"
         opacity="1"
         stroke="none"
         d="m 1762.6072,539.36585 c 0.1255,15.79656 0.2705,31.59295 0.3669,47.38964 0.038,6.16004 -0.1062,12.32154 -0.039,18.48096 0.109,10.0022 3.6561,12.59961 12.7099,9.58423 1.8412,8.28595 3.7345,16.57178 5.4437,24.89551 0.1556,0.75744 -0.6668,2.2904 -1.3814,2.5664 -12.7746,4.93384 -25.7447,6.8628 -38.1626,-0.52404 -9.6291,-5.72791 -14.4328,-15.42902 -15.284,-26.02356 -1.2751,-15.87177 -0.9178,-31.8747 -0.7907,-48.38892 0.8178,-1.59802 1.4406,-2.61774 1.4836,-3.66144 0.4033,-9.78729 0.819,-19.57642 1.0172,-29.36932 0.4108,-20.28827 0.7926,-40.57837 0.9643,-60.8696 0.054,-6.37378 -0.6709,-12.75092 -0.9162,-19.13129 -0.2619,-6.81579 1.1978,-8.29101 7.9258,-8.31457 4.9998,-0.0175 9.9995,-0.005 14.9993,-0.002 7.8308,0.005 9.1775,1.20459 9.0291,8.86554 -0.1829,9.45901 -0.9729,18.91995 -0.81,28.36813 0.1595,9.25659 1.3955,18.48981 1.7674,27.74903 0.3143,7.82043 -0.022,15.66522 0.1426,23.49469 0.034,1.64007 0.9984,3.26068 1.5341,4.8902 z"
         id="path43" />
      <path
         fill="#043563"
         opacity="1"
         stroke="none"
         d="m 1502.9334,579.00122 c 0,21.1167 0,41.73377 0,62.65393 -13.135,0 -25.5578,0 -38.3721,0 0,-46.03979 0,-92.09912 0,-138.66156 9.1282,0 18.2415,-0.11679 27.343,0.15885 1.0493,0.0317 2.6071,2.10498 2.9484,3.47586 1.5913,6.39184 2.838,12.8695 4.4665,20.53326 12.4283,-19.85001 28.3007,-31.39368 53.0546,-25.72229 -1.3326,11.57031 -2.6504,23.0119 -4.0359,35.04205 -11.8259,-4.28393 -22.5455,-2.80938 -32.0111,4.18628 -8.1709,6.03864 -13.3918,14.13532 -13.3348,24.83771 0.023,4.33185 -0.03,8.66412 -0.054,13.49591 z"
         id="path44" />
      <path
         fill="#001f56"
         opacity="1"
         stroke="none"
         d="m 1762.6499,539.18866 c -0.5784,-1.45233 -1.5424,-3.07294 -1.5768,-4.71301 -0.1644,-7.82947 0.1717,-15.67426 -0.1426,-23.49469 -0.3719,-9.25922 -1.6079,-18.49244 -1.7674,-27.74903 -0.1629,-9.44818 0.6271,-18.90912 0.81,-28.36813 0.1484,-7.66095 -1.1983,-8.86029 -9.0291,-8.86554 -4.9998,-0.003 -9.9995,-0.0159 -14.9993,0.002 -6.728,0.0236 -8.1877,1.49878 -7.9258,8.31457 0.2453,6.38037 0.97,12.75751 0.9162,19.13129 -0.1717,20.29123 -0.5535,40.58133 -0.9643,60.8696 -0.1982,9.7929 -0.6139,19.58203 -1.0172,29.36932 -0.043,1.0437 -0.6658,2.06342 -1.4026,3.19812 -0.4419,-40.80621 -0.5012,-81.71625 -0.5458,-122.62628 -3e-4,-0.2916 0.2031,-0.58337 0.4489,-1.24579 11.8031,0 23.7289,0 36.0925,0.57654 0.4379,24.24191 0.423,47.90726 0.4701,71.57251 0,1.60242 0.4715,3.20398 0.7234,4.80597 0.059,5.04535 0.1181,10.09076 -0.125,15.88183 -0.1901,1.43116 -0.078,2.11658 0.034,2.80201 0,0 0.043,0.36194 6e-4,0.53912 z"
         id="path45" />
      <path
         fill="#1f395f"
         opacity="1"
         stroke="none"
         d="m 1283.0471,539.37219 c 1.5753,3.47217 3.8668,7.18408 4.6776,11.19531 1.0398,5.14417 1.1698,10.52741 1.2013,15.81049 0.1222,20.46948 0.041,40.94019 0.054,61.4104 0.01,8.56818 1.9036,10.6098 10.2564,11.24078 3.9532,0.29859 7.8982,0.89154 11.8528,0.94733 8.1961,0.11554 11.7923,-3.53772 11.9625,-11.64789 0.027,-1.29742 0.3455,-2.5888 0.8501,-4.15014 0.4374,4.69818 0.5718,9.6632 0.6547,14.62909 0.016,0.96264 -0.1696,1.92858 -0.2718,2.99401 -12.6174,0 -25.023,0 -38.071,0 0,-1.97503 0,-3.73559 -10e-5,-5.49615 -0.02,-27.91284 0.088,-55.8269 -0.1969,-83.73706 -0.044,-4.28394 -1.8954,-8.54932 -2.9693,-13.19617 z"
         id="path46" />
      <path
         fill="#023564"
         opacity="1"
         stroke="none"
         d="m 1762.8304,519.50769 c -0.3422,-1.14398 -0.8105,-2.74554 -0.8137,-4.34796 -0.047,-23.66525 -0.032,-47.3306 -0.015,-71.44687 0.2839,0.91046 0.7794,2.27112 0.784,3.63339 0.081,23.901 0.1015,47.80222 0.045,72.16144 z"
         id="path47" />
      <path
         fill="#1f395f"
         opacity="1"
         stroke="none"
         d="m 1277.2993,534.20727 c 1.0465,0.24592 2.2981,0.73798 3.5908,1.59266 -1.101,-0.2071 -2.2435,-0.7768 -3.5908,-1.59266 z"
         id="path48" />
      <path
         fill="#023564"
         opacity="1"
         stroke="none"
         d="m 1762.791,538.34387 c -0.2538,-0.37976 -0.366,-1.06518 -0.2504,-2.03284 0.2824,0.38758 0.3372,1.05738 0.2504,2.03284 z"
         id="path49" />
      <path
         fill="#1f395f"
         opacity="1"
         stroke="none"
         d="m 1282.2739,538.22388 c 0.2918,-0.12696 0.5058,0.0682 0.6803,0.57153 -0.2684,0.12421 -0.5079,-0.0617 -0.6803,-0.57153 z"
         id="path50" />
      <path
         fill="#023562"
         opacity="1"
         stroke="none"
         d="m 990.70618,640.776 c -28.43586,9.32379 -54.97077,7.02789 -79.22357,-10.8006 -14.69422,-10.80182 -23.59485,-25.80401 -29.06208,-42.85852 -7.62957,-23.79974 -7.9685,-47.98846 -1.23486,-71.94732 6.6264,-23.57715 20.45178,-42.52723 41.77429,-54.72342 14.77625,-8.45188 31.19629,-11.10627 48.49896,-8.7468 14.599,1.99072 27.25983,7.61682 38.63448,16.60013 2.7229,2.15036 5.1169,4.71698 7.9126,7.32584 -6.6162,8.62478 -13.0365,16.9941 -19.55819,25.49557 -2.65075,-2.38605 -5.02838,-4.8995 -7.76428,-6.9303 -22.86438,-16.97159 -55.58648,-11.24234 -67.33191,17.92276 -10.34253,25.68134 -10.44568,51.89759 2.06201,76.99628 14.63141,29.3606 52.02021,30.8551 71.68921,7.08356 0.92908,-1.12287 1.91462,-2.19886 3.24346,-3.71967 6.7782,8.02564 13.2511,15.76233 19.816,23.42011 2.0361,2.375 0.5961,3.8388 -1.0014,5.43548 -8.174,8.17011 -17.4555,14.72608 -28.45472,19.4469 z"
         id="path51" />
      <path
         fill="#023563"
         opacity="1"
         stroke="none"
         d="m 1069.9453,508.8858 c 30.2412,-16.78259 62.2979,-12.02963 84.4696,12.25513 10.9739,12.01965 15.528,26.70416 17.233,42.41559 1.7684,16.29516 -0.7175,32.0393 -7.9322,46.82666 -12.8451,26.32751 -44.5916,40.78082 -73.1567,34.29932 -30.1374,-6.83838 -46.4071,-28.01191 -51.383,-56.37195 -3.9024,-22.24298 -0.9031,-43.72998 13.1619,-62.2428 4.8375,-6.36737 11.4852,-11.35938 17.6074,-17.18195 m 45.2125,24.10321 c -14.8534,-5.82397 -29.065,1.56946 -33.6424,14.91669 -5.5644,16.22492 -5.989,32.92108 -0.385,49.28375 3.6578,10.68048 15.8917,18.32581 25.2539,17.56256 12.7777,-1.0415 20.0884,-8.28082 23.9181,-19.78485 4.5136,-13.5589 4.3978,-27.24218 1.0456,-41.0805 -2.2297,-9.20453 -6.9725,-16.24604 -16.1902,-20.89765 z"
         id="path52" />
      <path
         fill="#023564"
         opacity="1"
         stroke="none"
         d="m 1603.0405,640.96686 c -23.5981,-9.38404 -35.1833,-28.05261 -39.661,-51.31751 -4.5882,-23.83923 -1.0735,-46.31488 14.4766,-66.24011 16.6007,-21.27203 48.6972,-30.40683 74.0912,-20.3024 27.0825,10.77634 39.901,31.77982 43.0955,59.79642 2.2004,19.297 -1.5039,37.49029 -11.8898,53.71631 -16.8921,26.39007 -50.7022,36.52044 -80.1125,24.34729 m 30.8242,-26.96808 c 9.4062,-2.44776 15.5496,-8.65167 18.9694,-17.4187 5.866,-15.0379 5.6531,-30.47571 1.0344,-45.68494 -2.8103,-9.25433 -8.9867,-16.38434 -18.7141,-18.86481 -14.3476,-3.65844 -26.2372,3.28058 -31.0653,18.21924 -4.5887,14.19849 -4.5886,28.69745 -0.2312,43.00879 4.9006,16.0957 12.5855,21.44025 30.0068,20.74042 z"
         id="path53" />
      <path
         fill="#023563"
         opacity="1"
         stroke="none"
         d="m 1282.2693,537.99219 c -0.3755,-0.43116 -0.751,-0.86225 -1.2734,-1.92414 -1.3985,-1.1228 -2.6501,-1.61486 -3.9017,-2.10693 -14.7523,-5.20605 -28.8524,2.89178 -35.979,14.70276 -1.0158,1.68353 -1.0797,4.11768 -1.0881,6.20636 -0.1094,27.15515 -0.129,54.31067 -0.1708,81.46606 0,1.64167 -3e-4,3.28339 -3e-4,5.31739 -12.8638,0 -25.4277,0 -38.3167,0 0,-45.98475 0,-92.04798 0,-138.39899 9.8847,0 19.6398,0 29.9742,0 1.6447,5.85126 3.3532,11.93024 5.2039,18.51489 3.4912,-3.09497 6.7194,-6.06909 10.0664,-8.90283 10.0562,-8.51428 21.7081,-13.47278 34.8535,-13.71881 23.1295,-0.43292 37.199,13.39007 41.2733,35.57092 1.0107,5.50159 1.0043,11.2309 1.061,16.85962 0.2391,23.80847 0.3256,47.61847 0.039,72.14758 -0.6134,2.01374 -0.9316,3.30512 -0.9589,4.60254 -0.1702,8.11017 -3.7664,11.76343 -11.9625,11.64789 -3.9546,-0.0558 -7.8996,-0.64874 -11.8528,-0.94733 -8.3528,-0.63098 -10.2512,-2.6726 -10.2564,-11.24078 -0.013,-20.47021 0.068,-40.94092 -0.054,-61.4104 -0.031,-5.28308 -0.1615,-10.66632 -1.2013,-15.81049 -0.8108,-4.01123 -3.1023,-7.72314 -4.7357,-11.56811 0,0 0.011,6.1e-4 -0.033,-0.21057 -0.1761,-0.49677 -0.3901,-0.6919 -0.6865,-0.79663 z"
         id="path54" />
      <path
         fill="#033665"
         opacity="1"
         stroke="none"
         d="m 1366.0535,586.99585 c 0,-18.14313 0,-35.78717 0,-53.83636 -6.5339,0 -12.7812,0 -19.3818,0 0,-10.14332 0,-19.88666 0,-30.02729 6.2935,0 12.5492,0 19.3076,0 0,-13.09701 0,-25.81976 0,-38.84482 12.7353,0 24.9641,0 37.7783,0 0,12.83466 0,25.56018 0,38.69519 11.1809,0 21.7877,0 32.7467,0 0,10.11899 0,19.81528 0,29.97062 -10.9432,0 -21.5309,0 -32.6564,0 0,3.55822 0,6.6781 0,9.79797 0,17.33032 0.2012,34.66357 -0.054,51.99017 -0.2854,19.42859 11.4861,23.0246 27.4692,19.18067 0.747,-0.17963 1.4467,-0.55658 2.409,-0.93671 3.2052,9.01251 6.3305,17.79999 9.5889,26.9624 -18.6416,7.68207 -37.5665,10.82282 -56.075,-0.151 -12.5571,-7.44519 -18.1778,-19.85577 -20.0836,-33.9057 -0.8231,-6.06775 -0.7257,-12.26025 -1.0478,-18.89514 z"
         id="path55" />
      <path
         fill="#023564"
         opacity="1"
         stroke="none"
         d="m 1762.6072,539.36585 c 0.1255,15.79656 0.2705,31.59295 0.3669,47.38964 0.038,6.16004 -0.1062,12.32154 -0.039,18.48096 0.109,10.0022 3.6561,12.59961 12.7099,9.58423 1.8412,8.28595 3.7345,16.57178 5.4437,24.89551 0.1556,0.75744 -0.6668,2.2904 -1.3814,2.5664 -12.7746,4.93384 -25.7447,6.8628 -38.1626,-0.52404 -9.6291,-5.72791 -14.4328,-15.42902 -15.284,-26.02356 -1.2751,-15.87177 -0.9178,-31.8747 -0.7907,-48.38892 0.8178,-1.59802 1.4406,-2.61774 1.4836,-3.66144 0.4033,-9.78729 0.819,-19.57642 1.0172,-29.36932 0.4108,-20.28827 0.7926,-40.57837 0.9643,-60.8696 0.054,-6.37378 -0.6709,-12.75092 -0.9162,-19.13129 -0.2619,-6.81579 1.1978,-8.29101 7.9258,-8.31457 4.9998,-0.0175 9.9995,-0.005 14.9993,-0.002 7.8308,0.005 9.1775,1.20459 9.0291,8.86554 -0.1829,9.45901 -0.9729,18.91995 -0.81,28.36813 0.1595,9.25659 1.3955,18.48981 1.7674,27.74903 0.3143,7.82043 -0.022,15.66522 0.1426,23.49469 0.034,1.64007 0.9984,3.26068 1.5341,4.8902 z"
         id="path56" />
      <path
         fill="#043563"
         opacity="1"
         stroke="none"
         d="m 1502.9334,579.00122 c 0,21.1167 0,41.73377 0,62.65393 -13.135,0 -25.5578,0 -38.3721,0 0,-46.03979 0,-92.09912 0,-138.66156 9.1282,0 18.2415,-0.11679 27.343,0.15885 1.0493,0.0317 2.6071,2.10498 2.9484,3.47586 1.5913,6.39184 2.838,12.8695 4.4665,20.53326 12.4283,-19.85001 28.3007,-31.39368 53.0546,-25.72229 -1.3326,11.57031 -2.6504,23.0119 -4.0359,35.04205 -11.8259,-4.28393 -22.5455,-2.80938 -32.0111,4.18628 -8.1709,6.03864 -13.3918,14.13532 -13.3348,24.83771 0.023,4.33185 -0.03,8.66412 -0.054,13.49591 z"
         id="path57" />
      <path
         fill="#001f56"
         opacity="1"
         stroke="none"
         d="m 1762.6499,539.18866 c -0.5784,-1.45233 -1.5424,-3.07294 -1.5768,-4.71301 -0.1644,-7.82947 0.1717,-15.67426 -0.1426,-23.49469 -0.3719,-9.25922 -1.6079,-18.49244 -1.7674,-27.74903 -0.1629,-9.44818 0.6271,-18.90912 0.81,-28.36813 0.1484,-7.66095 -1.1983,-8.86029 -9.0291,-8.86554 -4.9998,-0.003 -9.9995,-0.0159 -14.9993,0.002 -6.728,0.0236 -8.1877,1.49878 -7.9258,8.31457 0.2453,6.38037 0.97,12.75751 0.9162,19.13129 -0.1717,20.29123 -0.5535,40.58133 -0.9643,60.8696 -0.1982,9.7929 -0.6139,19.58203 -1.0172,29.36932 -0.043,1.0437 -0.6658,2.06342 -1.4026,3.19812 -0.4419,-40.80621 -0.5012,-81.71625 -0.5458,-122.62628 -3e-4,-0.2916 0.2031,-0.58337 0.4489,-1.24579 11.8031,0 23.7289,0 36.0925,0.57654 0.4379,24.24191 0.423,47.90726 0.4701,71.57251 0,1.60242 0.4715,3.20398 0.7234,4.80597 0.059,5.04535 0.1181,10.09076 -0.125,15.88183 -0.1901,1.43116 -0.078,2.11658 0.034,2.80201 0,0 0.043,0.36194 6e-4,0.53912 z"
         id="path58" />
      <path
         fill="#1f395f"
         opacity="1"
         stroke="none"
         d="m 1283.0471,539.37219 c 1.5753,3.47217 3.8668,7.18408 4.6776,11.19531 1.0398,5.14417 1.1698,10.52741 1.2013,15.81049 0.1222,20.46948 0.041,40.94019 0.054,61.4104 0.01,8.56818 1.9036,10.6098 10.2564,11.24078 3.9532,0.29859 7.8982,0.89154 11.8528,0.94733 8.1961,0.11554 11.7923,-3.53772 11.9625,-11.64789 0.027,-1.29742 0.3455,-2.5888 0.8501,-4.15014 0.4374,4.69818 0.5718,9.6632 0.6547,14.62909 0.016,0.96264 -0.1696,1.92858 -0.2718,2.99401 -12.6174,0 -25.023,0 -38.071,0 0,-1.97503 0,-3.73559 -10e-5,-5.49615 -0.02,-27.91284 0.088,-55.8269 -0.1969,-83.73706 -0.044,-4.28394 -1.8954,-8.54932 -2.9693,-13.19617 z"
         id="path59" />
      <path
         fill="#023564"
         opacity="1"
         stroke="none"
         d="m 1762.8304,519.50769 c -0.3422,-1.14398 -0.8105,-2.74554 -0.8137,-4.34796 -0.047,-23.66525 -0.032,-47.3306 -0.015,-71.44687 0.2839,0.91046 0.7794,2.27112 0.784,3.63339 0.081,23.901 0.1015,47.80222 0.045,72.16144 z"
         id="path60" />
      <path
         fill="#1f395f"
         opacity="1"
         stroke="none"
         d="m 1277.2993,534.20727 c 1.0465,0.24592 2.2981,0.73798 3.5908,1.59266 -1.101,-0.2071 -2.2435,-0.7768 -3.5908,-1.59266 z"
         id="path61" />
      <path
         fill="#023564"
         opacity="1"
         stroke="none"
         d="m 1762.791,538.34387 c -0.2538,-0.37976 -0.366,-1.06518 -0.2504,-2.03284 0.2824,0.38758 0.3372,1.05738 0.2504,2.03284 z"
         id="path62" />
      <path
         fill="#1f395f"
         opacity="1"
         stroke="none"
         d="m 1282.2739,538.22388 c 0.2918,-0.12696 0.5058,0.0682 0.6803,0.57153 -0.2684,0.12421 -0.5079,-0.0617 -0.6803,-0.57153 z"
         id="path63" />
    </g>
    <g
       id="g28"
       transform="translate(37.366707,15.418433)">
      <path
         fill="#01c9ca"
         opacity="1"
         stroke="none"
         d="m 544.97266,597.65125 c 2.85321,-12.36701 5.39984,-24.38977 8.57977,-36.24274 9.03601,-33.68103 18.39459,-67.27561 27.45264,-100.95087 1.32611,-4.93027 3.48602,-6.91171 8.92315,-6.61911 10.11487,0.5444 20.27985,0.15619 31.51166,0.15619 -1.16278,4.86255 -1.90607,8.95825 -3.12531,12.90701 -7.20269,23.32746 -14.54443,46.612 -21.78509,69.9278 -10.20679,32.86694 -20.45355,65.72211 -30.44293,98.65515 -1.35413,4.46423 -3.36444,5.74274 -7.95349,5.65674 -11.12922,-0.2085 -22.27607,0.17474 -33.40644,0.57812 -3.51501,0.12751 -4.84924,-1.29168 -5.82714,-4.48443 -8.00428,-26.13214 -16.21564,-52.20081 -24.29725,-78.30939 -10.55841,-34.11029 -21.05758,-68.23895 -31.56387,-102.36539 -0.19202,-0.62371 -0.15481,-1.31805 -0.26544,-2.36706 12.45206,0 24.85507,-0.15451 37.24216,0.21878 1.36563,0.0412 3.28869,2.9097 3.85333,4.79611 4.12741,13.78976 8.15082,27.61627 11.87274,41.52063 8.33997,31.15628 16.48993,62.36343 24.70288,93.55368 0.66205,2.51428 1.21332,5.05774 2.80786,7.844 0.56781,-1.35114 1.13556,-2.70228 1.72077,-4.47522 z"
         id="path67" />
      <path
         fill="#01caca"
         opacity="1"
         stroke="none"
         d="m 650.24988,513.24085 c 11.78229,-9.38486 25.30139,-14.12427 39.59845,-13.91971 27.05468,0.38711 45.76068,12.53036 53.06561,42.43448 3.29498,13.48883 2.66309,27.21502 1.02771,41.74645 -27.75684,0 -55.16229,0 -82.46741,0 -1.25396,10.95612 6.44959,24.65174 16.29993,28.72565 14.52368,6.00672 28.88733,5.6864 42.58551,-2.73791 1.5318,-0.94202 2.86951,-2.19959 4.70923,-3.63147 4.98578,7.5011 9.96295,14.98925 15.27087,22.97503 -9.40545,6.82483 -19.4032,12.36829 -30.64746,15.09168 -21.5141,5.21088 -41.71997,1.66675 -59.78821,-11.18476 -12.31842,-8.76183 -19.35101,-21.28369 -23.34661,-35.82592 -6.73938,-24.52851 -3.86414,-47.65283 9.82836,-69.03504 3.49677,-5.46039 9.01758,-9.62463 13.86402,-14.63848 m 52.86505,21.11651 c -7.87323,-7.28137 -19.54681,-6.9472 -27.93079,-1.98029 -8.9472,5.3006 -15.12207,16.91773 -13.57763,25.42847 16.73425,0 33.4624,0 50.16058,0 0.64148,-10.60785 -2.14166,-18.40527 -8.65216,-23.44818 z"
         id="path68" />
      <path
         fill="#01c9ca"
         opacity="1"
         stroke="none"
         d="m 838.22955,645.22675 c -14.4234,2.20843 -28.12518,1.35534 -40.35693,-6.37421 -10.46832,-6.61524 -15.15161,-17.61548 -16.57977,-29.12903 -1.60132,-12.90881 -1.09876,-26.0918 -1.28736,-39.15875 -0.16577,-11.48889 -0.0524,-22.98236 -2.4e-4,-34.47357 0.0211,-4.66022 -3.12708,-4.27704 -6.18537,-4.02588 -4.60858,0.3786 -9.21099,0.83185 -14.34332,1.30157 0,-10.32782 0,-20.0487 0,-30.28848 6.30457,0 12.71076,0 20.01575,0 0,-13.20068 0,-25.89761 0,-39.08124 12.01392,0 23.1239,-0.12219 34.22107,0.19806 1.05395,0.0305 2.86005,2.80869 2.90301,4.35068 0.26477,9.48523 0.12275,18.98184 0.11658,28.47464 -10e-4,1.79178 -1.2e-4,3.58355 -1.2e-4,5.9042 11.24359,0 21.97192,0 33.27081,0 0,9.29236 0.13306,18.06928 -0.17908,26.83026 -0.0364,1.02204 -2.51214,2.76471 -3.893,2.80109 -9.45453,0.24829 -18.91864,0.13025 -28.7099,0.13025 -0.4281,7.8786 -1.05444,15.11566 -1.16309,22.36047 -0.18725,12.48792 -0.13794,24.98163 0.003,37.47077 0.0389,3.44305 0.40631,6.96423 1.22619,10.30133 2.33051,9.48559 9.23084,13.70227 19.57636,12.104 3.32788,-0.5141 6.58233,-1.50354 10.05963,-2.31994 2.66235,8.3067 5.45081,16.67688 7.91431,25.14166 0.28369,0.97497 -0.98383,3.27753 -1.97388,3.59735 -4.65613,1.50427 -9.46631,2.53143 -14.63483,3.88477 z"
         id="path69" />
    </g>
    <path
       fill="#ff9802"
       opacity="1"
       stroke="none"
       d="m 237.17042,538.23716 c 11.11267,-5.87104 22.22929,-10.52777 34.68127,-10.80988 21.34366,-0.48352 39.45578,8.00647 55.64695,20.92743 25.34335,20.22467 43.76971,45.57837 54.73187,76.21515 4.98422,13.92975 7.87598,28.04925 5.13681,42.95593 -3.35635,18.26569 -19.31119,31.56928 -37.85587,31.99463 -14.16555,0.32495 -26.56625,-4.98761 -38.91265,-10.71588 -13.19181,-6.12061 -27.09354,-10.34625 -41.43671,-8.04413 -12.45297,1.99872 -24.43834,6.88013 -36.65102,10.41626 -9.6501,2.79413 -19.21174,7.18549 -29.02284,7.87451 -23.59003,1.65668 -41.67884,-15.66821 -43.12853,-39.29431 -1.19926,-19.5445 5.15531,-37.05518 13.99079,-54.02057 13.29343,-25.52521 31.24876,-46.88507 55.28645,-62.92871 2.33882,-1.56104 4.79932,-2.93988 7.53348,-4.57043 m 55.68185,99.17608 c 6.51752,-6.43994 13.20951,-12.71496 19.50089,-19.36871 5.67249,-5.99921 8.79623,-13.1568 8.1861,-21.69403 -1.15464,-16.1565 -16.44104,-27.80579 -30.96273,-22.7948 -5.58304,1.92657 -10.43644,5.96753 -15.95532,9.24273 -0.17512,-0.24029 -0.80295,-1.16864 -1.49741,-2.04418 -5.49301,-6.92499 -15.46444,-10.07831 -23.69296,-7.65888 -21.97445,6.46112 -22.89634,32.17737 -11.8376,44.01996 11.10025,11.8869 22.98387,23.04187 34.50754,34.5343 2.53343,2.52661 4.69525,2.24658 7.18663,-0.27447 4.55948,-4.61383 9.3614,-8.98804 14.56486,-13.96192 z"
       id="path2" />
    <path
       fill="#ff9902"
       opacity="1"
       stroke="none"
       d="m 366.84596,494.88608 c -12.78214,13.05658 -27.37598,19.28607 -45.24063,13.3794 -13.83661,-4.57489 -22.38913,-14.85099 -28.10642,-27.80823 -13.55559,-30.72147 -2.21768,-71.97196 25.10996,-91.39124 17.58819,-12.49841 39.44494,-8.61288 52.55926,9.37787 19.91855,27.32514 18.91403,69.40817 -4.32217,96.4422 z"
       id="path9" />
    <path
       fill="#ff9902"
       opacity="1"
       stroke="none"
       d="m 259.11691,466.05591 c -3.07135,11.34155 -6.60982,21.95227 -14.56444,30.54315 -20.70009,22.35562 -48.62363,15.06824 -63.30328,-3.33358 -18.46993,-23.15326 -23.7852,-61.79133 -6.20559,-89.79001 5.49677,-8.75464 12.74213,-15.65082 22.5588,-19.54187 11.34074,-4.49518 21.83065,-2.47064 31.65632,4.12005 16.42275,11.01581 24.55448,27.33353 29.09322,45.92194 2.56486,10.50433 2.63736,21.05304 0.76497,32.08032 z"
       id="path10" />
    <path
       fill="#ff9902"
       opacity="1"
       stroke="none"
       d="m 370.73942,528.89017 c 4.95694,-20.14487 14.94559,-36.72089 31.58395,-48.53482 21.37018,-15.17364 46.57828,-8.06729 57.69336,15.65527 12.13086,25.89051 5.51249,63.6746 -15.48779,82.44046 -8.84833,7.9068 -18.73849,14.10846 -30.86044,14.719 -18.70081,0.94177 -33.0376,-9.56977 -40.21131,-28.09204 -4.53643,-11.71296 -4.71072,-23.62409 -2.71777,-36.18787 z"
       id="path12" />
    <path
       fill="#ff9902"
       opacity="1"
       stroke="none"
       d="m 86.553267,503.64426 c 3.69865,-11.93945 10.29093,-21.12015 21.158553,-26.89325 10.19861,-5.41772 20.68303,-6.02475 31.08333,-0.97247 28.08491,13.64306 46.30668,50.92175 39.43544,81.18359 -3.20334,14.10785 -10.34143,25.9527 -23.99845,32.36835 -15.53859,7.29962 -30.04576,3.20917 -43.03798,-6.18445 -15.897553,-11.4942 -23.425723,-28.22919 -26.833403,-47.12701 -1.95977,-10.86817 -0.91211,-21.47397 2.19251,-32.37476 z"
       id="path14" />
    <path
       fill="#023562"
       opacity="1"
       stroke="none"
       d="m 1028.0729,656.19443 c -28.43589,9.32379 -54.97079,7.02789 -79.22359,-10.8006 -14.6942,-10.80182 -23.5948,-25.80401 -29.0621,-42.85852 -7.6295,-23.79974 -7.9685,-47.98846 -1.2348,-71.94732 6.6264,-23.57715 20.4518,-42.52723 41.7743,-54.72342 14.7762,-8.45188 31.1962,-11.10627 48.49889,-8.7468 14.599,1.99072 27.2598,7.61682 38.6345,16.60013 2.7229,2.15036 5.1169,4.71698 7.9126,7.32584 -6.6162,8.62478 -13.0365,16.9941 -19.5582,25.49557 -2.6507,-2.38605 -5.0284,-4.8995 -7.7643,-6.9303 -22.8643,-16.97159 -55.58639,-11.24234 -67.33189,17.92276 -10.3425,25.68134 -10.4457,51.89759 2.062,76.99628 14.6314,29.3606 52.02019,30.8551 71.68919,7.08356 0.9291,-1.12287 1.9147,-2.19886 3.2435,-3.71967 6.7782,8.02564 13.2511,15.76233 19.816,23.42011 2.0361,2.375 0.5961,3.8388 -1.0014,5.43548 -8.174,8.17011 -17.4555,14.72608 -28.4547,19.4469 z"
       id="path28" />
    <path
       fill="#023563"
       opacity="1"
       stroke="none"
       d="m 1107.312,524.30423 c 30.2412,-16.78259 62.2979,-12.02963 84.4696,12.25513 10.9739,12.01965 15.528,26.70416 17.233,42.41559 1.7684,16.29516 -0.7175,32.0393 -7.9322,46.82666 -12.8451,26.32751 -44.5916,40.78082 -73.1567,34.29932 -30.1374,-6.83838 -46.4071,-28.01191 -51.383,-56.37195 -3.9024,-22.24298 -0.9031,-43.72998 13.1619,-62.2428 4.8375,-6.36737 11.4852,-11.35938 17.6074,-17.18195 m 45.2125,24.10321 c -14.8534,-5.82397 -29.065,1.56946 -33.6424,14.91669 -5.5644,16.22492 -5.989,32.92108 -0.385,49.28375 3.6578,10.68048 15.8917,18.32581 25.2539,17.56256 12.7777,-1.0415 20.0884,-8.28082 23.9181,-19.78485 4.5136,-13.5589 4.3978,-27.24218 1.0456,-41.0805 -2.2297,-9.20453 -6.9725,-16.24604 -16.1902,-20.89765 z"
       id="path29" />
    <path
       fill="#023564"
       opacity="1"
       stroke="none"
       d="m 1640.4072,656.38529 c -23.5981,-9.38404 -35.1833,-28.05261 -39.661,-51.31751 -4.5882,-23.83923 -1.0735,-46.31488 14.4766,-66.24011 16.6007,-21.27203 48.6972,-30.40683 74.0912,-20.3024 27.0825,10.77634 39.901,31.77982 43.0955,59.79642 2.2004,19.297 -1.5039,37.49029 -11.8898,53.71631 -16.8921,26.39007 -50.7022,36.52044 -80.1125,24.34729 m 30.8242,-26.96808 c 9.4062,-2.44776 15.5496,-8.65167 18.9694,-17.4187 5.866,-15.0379 5.6531,-30.47571 1.0344,-45.68494 -2.8103,-9.25433 -8.9867,-16.38434 -18.7141,-18.86481 -14.3476,-3.65844 -26.2372,3.28058 -31.0653,18.21924 -4.5887,14.19849 -4.5886,28.69745 -0.2312,43.00879 4.9006,16.0957 12.5855,21.44025 30.0068,20.74042 z"
       id="path30" />
    <path
       fill="#023563"
       opacity="1"
       stroke="none"
       d="m 1319.636,553.41062 c -0.3755,-0.43116 -0.751,-0.86225 -1.2734,-1.92414 -1.3985,-1.1228 -2.6501,-1.61486 -3.9017,-2.10693 -14.7523,-5.20605 -28.8524,2.89178 -35.979,14.70276 -1.0158,1.68353 -1.0797,4.11768 -1.0881,6.20636 -0.1094,27.15515 -0.129,54.31067 -0.1708,81.46606 0,1.64167 -3e-4,3.28339 -3e-4,5.31739 -12.8638,0 -25.4277,0 -38.3167,0 0,-45.98475 0,-92.04798 0,-138.39899 9.8847,0 19.6398,0 29.9742,0 1.6447,5.85126 3.3532,11.93024 5.2039,18.51489 3.4912,-3.09497 6.7194,-6.06909 10.0664,-8.90283 10.0562,-8.51428 21.7081,-13.47278 34.8535,-13.71881 23.1295,-0.43292 37.199,13.39007 41.2733,35.57092 1.0107,5.50159 1.0043,11.2309 1.061,16.85962 0.2391,23.80847 0.3256,47.61847 0.039,72.14758 -0.6134,2.01374 -0.9316,3.30512 -0.9589,4.60254 -0.1702,8.11017 -3.7664,11.76343 -11.9625,11.64789 -3.9546,-0.0558 -7.8996,-0.64874 -11.8528,-0.94733 -8.3528,-0.63098 -10.2512,-2.6726 -10.2564,-11.24078 -0.013,-20.47021 0.068,-40.94092 -0.054,-61.4104 -0.031,-5.28308 -0.1615,-10.66632 -1.2013,-15.81049 -0.8108,-4.01123 -3.1023,-7.72314 -4.7357,-11.56811 0,0 0.011,6.1e-4 -0.033,-0.21057 -0.1761,-0.49677 -0.3901,-0.6919 -0.6865,-0.79663 z"
       id="path31" />
    <path
       fill="#033665"
       opacity="1"
       stroke="none"
       d="m 1403.4202,602.41428 c 0,-18.14313 0,-35.78717 0,-53.83636 -6.5339,0 -12.7812,0 -19.3818,0 0,-10.14332 0,-19.88666 0,-30.02729 6.2935,0 12.5492,0 19.3076,0 0,-13.09701 0,-25.81976 0,-38.84482 12.7353,0 24.9641,0 37.7783,0 0,12.83466 0,25.56018 0,38.69519 11.1809,0 21.7877,0 32.7467,0 0,10.11899 0,19.81528 0,29.97062 -10.9432,0 -21.5309,0 -32.6564,0 0,3.55822 0,6.6781 0,9.79797 0,17.33032 0.2012,34.66357 -0.054,51.99017 -0.2854,19.42859 11.4861,23.0246 27.4692,19.18067 0.747,-0.17963 1.4467,-0.55658 2.409,-0.93671 3.2052,9.01251 6.3305,17.79999 9.5889,26.9624 -18.6416,7.68207 -37.5665,10.82282 -56.075,-0.151 -12.5571,-7.44519 -18.1778,-19.85577 -20.0836,-33.9057 -0.8231,-6.06775 -0.7257,-12.26025 -1.0478,-18.89514 z"
       id="path32" />
    <path
       fill="#023564"
       opacity="1"
       stroke="none"
       d="m 1799.9739,554.78428 c 0.1255,15.79656 0.2705,31.59295 0.3669,47.38964 0.038,6.16004 -0.1062,12.32154 -0.039,18.48096 0.109,10.0022 3.6561,12.59961 12.7099,9.58423 1.8412,8.28595 3.7345,16.57178 5.4437,24.89551 0.1556,0.75744 -0.6668,2.2904 -1.3814,2.5664 -12.7746,4.93384 -25.7447,6.8628 -38.1626,-0.52404 -9.6291,-5.72791 -14.4328,-15.42902 -15.284,-26.02356 -1.2751,-15.87177 -0.9178,-31.8747 -0.7907,-48.38892 0.8178,-1.59802 1.4406,-2.61774 1.4836,-3.66144 0.4033,-9.78729 0.819,-19.57642 1.0172,-29.36932 0.4108,-20.28827 0.7926,-40.57837 0.9643,-60.8696 0.054,-6.37378 -0.6709,-12.75092 -0.9162,-19.13129 -0.2619,-6.81579 1.1978,-8.29101 7.9258,-8.31457 4.9998,-0.0175 9.9995,-0.005 14.9993,-0.002 7.8308,0.005 9.1775,1.20459 9.0291,8.86554 -0.1829,9.45901 -0.9729,18.91995 -0.81,28.36813 0.1595,9.25659 1.3955,18.48981 1.7674,27.74903 0.3143,7.82043 -0.022,15.66522 0.1426,23.49469 0.034,1.64007 0.9984,3.26068 1.5341,4.8902 z"
       id="path33" />
    <path
       fill="#043563"
       opacity="1"
       stroke="none"
       d="m 1540.3001,594.41965 c 0,21.1167 0,41.73377 0,62.65393 -13.135,0 -25.5578,0 -38.3721,0 0,-46.03979 0,-92.09912 0,-138.66156 9.1282,0 18.2415,-0.11679 27.343,0.15885 1.0493,0.0317 2.6071,2.10498 2.9484,3.47586 1.5913,6.39184 2.838,12.8695 4.4665,20.53326 12.4283,-19.85001 28.3007,-31.39368 53.0546,-25.72229 -1.3326,11.57031 -2.6504,23.0119 -4.0359,35.04205 -11.8259,-4.28393 -22.5455,-2.80938 -32.0111,4.18628 -8.1709,6.03864 -13.3918,14.13532 -13.3348,24.83771 0.023,4.33185 -0.03,8.66412 -0.054,13.49591 z"
       id="path34" />
    <path
       fill="#001f56"
       opacity="1"
       stroke="none"
       d="m 1800.0166,554.60709 c -0.5784,-1.45233 -1.5424,-3.07294 -1.5768,-4.71301 -0.1644,-7.82947 0.1717,-15.67426 -0.1426,-23.49469 -0.3719,-9.25922 -1.6079,-18.49244 -1.7674,-27.74903 -0.1629,-9.44818 0.6271,-18.90912 0.81,-28.36813 0.1484,-7.66095 -1.1983,-8.86029 -9.0291,-8.86554 -4.9998,-0.003 -9.9995,-0.0159 -14.9993,0.002 -6.728,0.0236 -8.1877,1.49878 -7.9258,8.31457 0.2453,6.38037 0.97,12.75751 0.9162,19.13129 -0.1717,20.29123 -0.5535,40.58133 -0.9643,60.8696 -0.1982,9.7929 -0.6139,19.58203 -1.0172,29.36932 -0.043,1.0437 -0.6658,2.06342 -1.4026,3.19812 -0.4419,-40.80621 -0.5012,-81.71625 -0.5458,-122.62628 -3e-4,-0.2916 0.2031,-0.58337 0.4489,-1.24579 11.8031,0 23.7289,0 36.0925,0.57654 0.4379,24.24191 0.423,47.90726 0.4701,71.57251 0,1.60242 0.4715,3.20398 0.7234,4.80597 0.059,5.04535 0.1181,10.09076 -0.125,15.88183 -0.1901,1.43116 -0.078,2.11658 0.034,2.80201 0,0 0.043,0.36194 6e-4,0.53912 z"
       id="path35" />
    <path
       fill="#1f395f"
       opacity="1"
       stroke="none"
       d="m 1320.4138,554.79062 c 1.5753,3.47217 3.8668,7.18408 4.6776,11.19531 1.0398,5.14417 1.1698,10.52741 1.2013,15.81049 0.1222,20.46948 0.041,40.94019 0.054,61.4104 0.01,8.56818 1.9036,10.6098 10.2564,11.24078 3.9532,0.29859 7.8982,0.89154 11.8528,0.94733 8.1961,0.11554 11.7923,-3.53772 11.9625,-11.64789 0.027,-1.29742 0.3455,-2.5888 0.8501,-4.15014 0.4374,4.69818 0.5718,9.6632 0.6547,14.62909 0.016,0.96264 -0.1696,1.92858 -0.2718,2.99401 -12.6174,0 -25.023,0 -38.071,0 0,-1.97503 0,-3.73559 -10e-5,-5.49615 -0.02,-27.91284 0.088,-55.8269 -0.1969,-83.73706 -0.044,-4.28394 -1.8954,-8.54932 -2.9693,-13.19617 z"
       id="path36" />
    <path
       fill="#023564"
       opacity="1"
       stroke="none"
       d="m 1800.1971,534.92612 c -0.3422,-1.14398 -0.8105,-2.74554 -0.8137,-4.34796 -0.047,-23.66525 -0.032,-47.3306 -0.015,-71.44687 0.2839,0.91046 0.7794,2.27112 0.784,3.63339 0.081,23.901 0.1015,47.80222 0.045,72.16144 z"
       id="path37" />
    <path
       fill="#1f395f"
       opacity="1"
       stroke="none"
       d="m 1314.666,549.6257 c 1.0465,0.24592 2.2981,0.73798 3.5908,1.59266 -1.101,-0.2071 -2.2435,-0.7768 -3.5908,-1.59266 z"
       id="path38" />
    <path
       fill="#023564"
       opacity="1"
       stroke="none"
       d="m 1800.1577,553.7623 c -0.2538,-0.37976 -0.366,-1.06518 -0.2504,-2.03284 0.2824,0.38758 0.3372,1.05738 0.2504,2.03284 z"
       id="path39" />
    <path
       fill="#1f395f"
       opacity="1"
       stroke="none"
       d="m 1319.6406,553.64231 c 0.2918,-0.12696 0.5058,0.0682 0.6803,0.57153 -0.2684,0.12421 -0.5079,-0.0617 -0.6803,-0.57153 z"
       id="path40" />
    <path
       fill="#023562"
       opacity="1"
       stroke="none"
       d="m 1028.0729,656.19443 c -28.43589,9.32379 -54.97079,7.02789 -79.22359,-10.8006 -14.6942,-10.80182 -23.5948,-25.80401 -29.0621,-42.85852 -7.6295,-23.79974 -7.9685,-47.98846 -1.2348,-71.94732 6.6264,-23.57715 20.4518,-42.52723 41.7743,-54.72342 14.7762,-8.45188 31.1962,-11.10627 48.49889,-8.7468 14.599,1.99072 27.2598,7.61682 38.6345,16.60013 2.7229,2.15036 5.1169,4.71698 7.9126,7.32584 -6.6162,8.62478 -13.0365,16.9941 -19.5582,25.49557 -2.6507,-2.38605 -5.0284,-4.8995 -7.7643,-6.9303 -22.8643,-16.97159 -55.58639,-11.24234 -67.33189,17.92276 -10.3425,25.68134 -10.4457,51.89759 2.062,76.99628 14.6314,29.3606 52.02019,30.8551 71.68919,7.08356 0.9291,-1.12287 1.9147,-2.19886 3.2435,-3.71967 6.7782,8.02564 13.2511,15.76233 19.816,23.42011 2.0361,2.375 0.5961,3.8388 -1.0014,5.43548 -8.174,8.17011 -17.4555,14.72608 -28.4547,19.4469 z"
       id="path8" />
    <path
       fill="#023563"
       opacity="1"
       stroke="none"
       d="m 1107.312,524.30423 c 30.2412,-16.78259 62.2979,-12.02963 84.4696,12.25513 10.9739,12.01965 15.528,26.70416 17.233,42.41559 1.7684,16.29516 -0.7175,32.0393 -7.9322,46.82666 -12.8451,26.32751 -44.5916,40.78082 -73.1567,34.29932 -30.1374,-6.83838 -46.4071,-28.01191 -51.383,-56.37195 -3.9024,-22.24298 -0.9031,-43.72998 13.1619,-62.2428 4.8375,-6.36737 11.4852,-11.35938 17.6074,-17.18195 m 45.2125,24.10321 c -14.8534,-5.82397 -29.065,1.56946 -33.6424,14.91669 -5.5644,16.22492 -5.989,32.92108 -0.385,49.28375 3.6578,10.68048 15.8917,18.32581 25.2539,17.56256 12.7777,-1.0415 20.0884,-8.28082 23.9181,-19.78485 4.5136,-13.5589 4.3978,-27.24218 1.0456,-41.0805 -2.2297,-9.20453 -6.9725,-16.24604 -16.1902,-20.89765 z"
       id="path11" />
    <path
       fill="#023564"
       opacity="1"
       stroke="none"
       d="m 1640.4072,656.38529 c -23.5981,-9.38404 -35.1833,-28.05261 -39.661,-51.31751 -4.5882,-23.83923 -1.0735,-46.31488 14.4766,-66.24011 16.6007,-21.27203 48.6972,-30.40683 74.0912,-20.3024 27.0825,10.77634 39.901,31.77982 43.0955,59.79642 2.2004,19.297 -1.5039,37.49029 -11.8898,53.71631 -16.8921,26.39007 -50.7022,36.52044 -80.1125,24.34729 m 30.8242,-26.96808 c 9.4062,-2.44776 15.5496,-8.65167 18.9694,-17.4187 5.866,-15.0379 5.6531,-30.47571 1.0344,-45.68494 -2.8103,-9.25433 -8.9867,-16.38434 -18.7141,-18.86481 -14.3476,-3.65844 -26.2372,3.28058 -31.0653,18.21924 -4.5887,14.19849 -4.5886,28.69745 -0.2312,43.00879 4.9006,16.0957 12.5855,21.44025 30.0068,20.74042 z"
       id="path13" />
    <path
       fill="#023563"
       opacity="1"
       stroke="none"
       d="m 1319.636,553.41062 c -0.3755,-0.43116 -0.751,-0.86225 -1.2734,-1.92414 -1.3985,-1.1228 -2.6501,-1.61486 -3.9017,-2.10693 -14.7523,-5.20605 -28.8524,2.89178 -35.979,14.70276 -1.0158,1.68353 -1.0797,4.11768 -1.0881,6.20636 -0.1094,27.15515 -0.129,54.31067 -0.1708,81.46606 0,1.64167 -3e-4,3.28339 -3e-4,5.31739 -12.8638,0 -25.4277,0 -38.3167,0 0,-45.98475 0,-92.04798 0,-138.39899 9.8847,0 19.6398,0 29.9742,0 1.6447,5.85126 3.3532,11.93024 5.2039,18.51489 3.4912,-3.09497 6.7194,-6.06909 10.0664,-8.90283 10.0562,-8.51428 21.7081,-13.47278 34.8535,-13.71881 23.1295,-0.43292 37.199,13.39007 41.2733,35.57092 1.0107,5.50159 1.0043,11.2309 1.061,16.85962 0.2391,23.80847 0.3256,47.61847 0.039,72.14758 -0.6134,2.01374 -0.9316,3.30512 -0.9589,4.60254 -0.1702,8.11017 -3.7664,11.76343 -11.9625,11.64789 -3.9546,-0.0558 -7.8996,-0.64874 -11.8528,-0.94733 -8.3528,-0.63098 -10.2512,-2.6726 -10.2564,-11.24078 -0.013,-20.47021 0.068,-40.94092 -0.054,-61.4104 -0.031,-5.28308 -0.1615,-10.66632 -1.2013,-15.81049 -0.8108,-4.01123 -3.1023,-7.72314 -4.7357,-11.56811 0,0 0.011,6.1e-4 -0.033,-0.21057 -0.1761,-0.49677 -0.3901,-0.6919 -0.6865,-0.79663 z"
       id="path15" />
    <path
       fill="#033665"
       opacity="1"
       stroke="none"
       d="m 1403.4202,602.41428 c 0,-18.14313 0,-35.78717 0,-53.83636 -6.5339,0 -12.7812,0 -19.3818,0 0,-10.14332 0,-19.88666 0,-30.02729 6.2935,0 12.5492,0 19.3076,0 0,-13.09701 0,-25.81976 0,-38.84482 12.7353,0 24.9641,0 37.7783,0 0,12.83466 0,25.56018 0,38.69519 11.1809,0 21.7877,0 32.7467,0 0,10.11899 0,19.81528 0,29.97062 -10.9432,0 -21.5309,0 -32.6564,0 0,3.55822 0,6.6781 0,9.79797 0,17.33032 0.2012,34.66357 -0.054,51.99017 -0.2854,19.42859 11.4861,23.0246 27.4692,19.18067 0.747,-0.17963 1.4467,-0.55658 2.409,-0.93671 3.2052,9.01251 6.3305,17.79999 9.5889,26.9624 -18.6416,7.68207 -37.5665,10.82282 -56.075,-0.151 -12.5571,-7.44519 -18.1778,-19.85577 -20.0836,-33.9057 -0.8231,-6.06775 -0.7257,-12.26025 -1.0478,-18.89514 z"
       id="path16" />
    <path
       fill="#023564"
       opacity="1"
       stroke="none"
       d="m 1799.9739,554.78428 c 0.1255,15.79656 0.2705,31.59295 0.3669,47.38964 0.038,6.16004 -0.1062,12.32154 -0.039,18.48096 0.109,10.0022 3.6561,12.59961 12.7099,9.58423 1.8412,8.28595 3.7345,16.57178 5.4437,24.89551 0.1556,0.75744 -0.6668,2.2904 -1.3814,2.5664 -12.7746,4.93384 -25.7447,6.8628 -38.1626,-0.52404 -9.6291,-5.72791 -14.4328,-15.42902 -15.284,-26.02356 -1.2751,-15.87177 -0.9178,-31.8747 -0.7907,-48.38892 0.8178,-1.59802 1.4406,-2.61774 1.4836,-3.66144 0.4033,-9.78729 0.819,-19.57642 1.0172,-29.36932 0.4108,-20.28827 0.7926,-40.57837 0.9643,-60.8696 0.054,-6.37378 -0.6709,-12.75092 -0.9162,-19.13129 -0.2619,-6.81579 1.1978,-8.29101 7.9258,-8.31457 4.9998,-0.0175 9.9995,-0.005 14.9993,-0.002 7.8308,0.005 9.1775,1.20459 9.0291,8.86554 -0.1829,9.45901 -0.9729,18.91995 -0.81,28.36813 0.1595,9.25659 1.3955,18.48981 1.7674,27.74903 0.3143,7.82043 -0.022,15.66522 0.1426,23.49469 0.034,1.64007 0.9984,3.26068 1.5341,4.8902 z"
       id="path17" />
    <path
       fill="#043563"
       opacity="1"
       stroke="none"
       d="m 1540.3001,594.41965 c 0,21.1167 0,41.73377 0,62.65393 -13.135,0 -25.5578,0 -38.3721,0 0,-46.03979 0,-92.09912 0,-138.66156 9.1282,0 18.2415,-0.11679 27.343,0.15885 1.0493,0.0317 2.6071,2.10498 2.9484,3.47586 1.5913,6.39184 2.838,12.8695 4.4665,20.53326 12.4283,-19.85001 28.3007,-31.39368 53.0546,-25.72229 -1.3326,11.57031 -2.6504,23.0119 -4.0359,35.04205 -11.8259,-4.28393 -22.5455,-2.80938 -32.0111,4.18628 -8.1709,6.03864 -13.3918,14.13532 -13.3348,24.83771 0.023,4.33185 -0.03,8.66412 -0.054,13.49591 z"
       id="path18" />
    <path
       fill="#001f56"
       opacity="1"
       stroke="none"
       d="m 1800.0166,554.60709 c -0.5784,-1.45233 -1.5424,-3.07294 -1.5768,-4.71301 -0.1644,-7.82947 0.1717,-15.67426 -0.1426,-23.49469 -0.3719,-9.25922 -1.6079,-18.49244 -1.7674,-27.74903 -0.1629,-9.44818 0.6271,-18.90912 0.81,-28.36813 0.1484,-7.66095 -1.1983,-8.86029 -9.0291,-8.86554 -4.9998,-0.003 -9.9995,-0.0159 -14.9993,0.002 -6.728,0.0236 -8.1877,1.49878 -7.9258,8.31457 0.2453,6.38037 0.97,12.75751 0.9162,19.13129 -0.1717,20.29123 -0.5535,40.58133 -0.9643,60.8696 -0.1982,9.7929 -0.6139,19.58203 -1.0172,29.36932 -0.043,1.0437 -0.6658,2.06342 -1.4026,3.19812 -0.4419,-40.80621 -0.5012,-81.71625 -0.5458,-122.62628 -3e-4,-0.2916 0.2031,-0.58337 0.4489,-1.24579 11.8031,0 23.7289,0 36.0925,0.57654 0.4379,24.24191 0.423,47.90726 0.4701,71.57251 0,1.60242 0.4715,3.20398 0.7234,4.80597 0.059,5.04535 0.1181,10.09076 -0.125,15.88183 -0.1901,1.43116 -0.078,2.11658 0.034,2.80201 0,0 0.043,0.36194 6e-4,0.53912 z"
       id="path19" />
    <path
       fill="#1f395f"
       opacity="1"
       stroke="none"
       d="m 1320.4138,554.79062 c 1.5753,3.47217 3.8668,7.18408 4.6776,11.19531 1.0398,5.14417 1.1698,10.52741 1.2013,15.81049 0.1222,20.46948 0.041,40.94019 0.054,61.4104 0.01,8.56818 1.9036,10.6098 10.2564,11.24078 3.9532,0.29859 7.8982,0.89154 11.8528,0.94733 8.1961,0.11554 11.7923,-3.53772 11.9625,-11.64789 0.027,-1.29742 0.3455,-2.5888 0.8501,-4.15014 0.4374,4.69818 0.5718,9.6632 0.6547,14.62909 0.016,0.96264 -0.1696,1.92858 -0.2718,2.99401 -12.6174,0 -25.023,0 -38.071,0 0,-1.97503 0,-3.73559 -10e-5,-5.49615 -0.02,-27.91284 0.088,-55.8269 -0.1969,-83.73706 -0.044,-4.28394 -1.8954,-8.54932 -2.9693,-13.19617 z"
       id="path20" />
    <path
       fill="#023564"
       opacity="1"
       stroke="none"
       d="m 1800.1971,534.92612 c -0.3422,-1.14398 -0.8105,-2.74554 -0.8137,-4.34796 -0.047,-23.66525 -0.032,-47.3306 -0.015,-71.44687 0.2839,0.91046 0.7794,2.27112 0.784,3.63339 0.081,23.901 0.1015,47.80222 0.045,72.16144 z"
       id="path21" />
    <path
       fill="#1f395f"
       opacity="1"
       stroke="none"
       d="m 1314.666,549.6257 c 1.0465,0.24592 2.2981,0.73798 3.5908,1.59266 -1.101,-0.2071 -2.2435,-0.7768 -3.5908,-1.59266 z"
       id="path22" />
    <path
       fill="#023564"
       opacity="1"
       stroke="none"
       d="m 1800.1577,553.7623 c -0.2538,-0.37976 -0.366,-1.06518 -0.2504,-2.03284 0.2824,0.38758 0.3372,1.05738 0.2504,2.03284 z"
       id="path23" />
    <path
       fill="#1f395f"
       opacity="1"
       stroke="none"
       d="m 1319.6406,553.64231 c 0.2918,-0.12696 0.5058,0.0682 0.6803,0.57153 -0.2684,0.12421 -0.5079,-0.0617 -0.6803,-0.57153 z"
       id="path24" />
    <path
       fill="#01c9ca"
       opacity="1"
       stroke="none"
       d="m 582.33937,613.06968 c 2.85321,-12.36701 5.39984,-24.38977 8.57977,-36.24274 9.03601,-33.68103 18.39459,-67.27561 27.45264,-100.95087 1.32611,-4.93027 3.48602,-6.91171 8.92315,-6.61911 10.11487,0.5444 20.27985,0.15619 31.51166,0.15619 -1.16278,4.86255 -1.90607,8.95825 -3.12531,12.90701 -7.20269,23.32746 -14.54443,46.612 -21.78509,69.9278 -10.20679,32.86694 -20.45355,65.72211 -30.44293,98.65515 -1.35413,4.46423 -3.36444,5.74274 -7.95349,5.65674 -11.12922,-0.2085 -22.27607,0.17474 -33.40644,0.57812 -3.51501,0.12751 -4.84924,-1.29168 -5.82714,-4.48443 -8.00428,-26.13214 -16.21564,-52.20081 -24.29725,-78.30939 -10.55841,-34.11029 -21.05758,-68.23895 -31.56387,-102.36539 -0.19202,-0.62371 -0.15481,-1.31805 -0.26544,-2.36706 12.45206,0 24.85507,-0.15451 37.24216,0.21878 1.36563,0.0412 3.28869,2.9097 3.85333,4.79611 4.12741,13.78976 8.15082,27.61627 11.87274,41.52063 8.33997,31.15628 16.48993,62.36343 24.70288,93.55368 0.66205,2.51428 1.21332,5.05774 2.80786,7.844 0.56781,-1.35114 1.13556,-2.70228 1.72077,-4.47522 z"
       id="path64" />
    <path
       fill="#01caca"
       opacity="1"
       stroke="none"
       d="m 687.61659,528.65928 c 11.78229,-9.38486 25.30139,-14.12427 39.59845,-13.91971 27.05468,0.38711 45.76068,12.53036 53.06561,42.43448 3.29498,13.48883 2.66309,27.21502 1.02771,41.74645 -27.75684,0 -55.16229,0 -82.46741,0 -1.25396,10.95612 6.44959,24.65174 16.29993,28.72565 14.52368,6.00672 28.88733,5.6864 42.58551,-2.73791 1.5318,-0.94202 2.86951,-2.19959 4.70923,-3.63147 4.98578,7.5011 9.96295,14.98925 15.27087,22.97503 -9.40545,6.82483 -19.4032,12.36829 -30.64746,15.09168 -21.5141,5.21088 -41.71997,1.66675 -59.78821,-11.18476 -12.31842,-8.76183 -19.35101,-21.28369 -23.34661,-35.82592 -6.73938,-24.52851 -3.86414,-47.65283 9.82836,-69.03504 3.49677,-5.46039 9.01758,-9.62463 13.86402,-14.63848 m 52.86505,21.11651 c -7.87323,-7.28137 -19.54681,-6.9472 -27.93079,-1.98029 -8.9472,5.3006 -15.12207,16.91773 -13.57763,25.42847 16.73425,0 33.4624,0 50.16058,0 0.64148,-10.60785 -2.14166,-18.40527 -8.65216,-23.44818 z"
       id="path65" />
    <path
       fill="#01c9ca"
       opacity="1"
       stroke="none"
       d="m 875.59631,660.64518 c -14.4234,2.20843 -28.1252,1.35534 -40.357,-6.37421 -10.4683,-6.61524 -15.1516,-17.61548 -16.5798,-29.12903 -1.6013,-12.90881 -1.0987,-26.0918 -1.2873,-39.15875 -0.1658,-11.48889 -0.052,-22.98236 -3e-4,-34.47357 0.021,-4.66022 -3.127,-4.27704 -6.1853,-4.02588 -4.6086,0.3786 -9.21101,0.83185 -14.34334,1.30157 0,-10.32782 0,-20.0487 0,-30.28848 6.30457,0 12.71074,0 20.01574,0 0,-13.20068 0,-25.89761 0,-39.08124 12.0139,0 23.1239,-0.12219 34.2211,0.19806 1.0539,0.0305 2.86,2.80869 2.903,4.35068 0.2648,9.48523 0.1227,18.98184 0.1166,28.47464 -10e-4,1.79178 -10e-5,3.58355 -10e-5,5.9042 11.2435,0 21.9719,0 33.2708,0 0,9.29236 0.133,18.06928 -0.1791,26.83026 -0.036,1.02204 -2.5122,2.76471 -3.893,2.80109 -9.4546,0.24829 -18.9187,0.13025 -28.7099,0.13025 -0.4281,7.8786 -1.0545,15.11566 -1.1631,22.36047 -0.1873,12.48792 -0.138,24.98163 0,37.47077 0.039,3.44305 0.4063,6.96423 1.2262,10.30133 2.3305,9.48559 9.2308,13.70227 19.5763,12.104 3.3279,-0.5141 6.5824,-1.50354 10.0597,-2.31994 2.6623,8.3067 5.4508,16.67688 7.9143,25.14166 0.2837,0.97497 -0.9838,3.27753 -1.9739,3.59735 -4.6561,1.50427 -9.4663,2.53143 -14.6348,3.88477 z"
       id="path66" />
  </g>
</svg>
